<svg width="48px" height="48px" viewBox="0 0 48 48" version="1.1" xmlns="http://www.w3.org/2000/svg">
    <path fill="#323232" fill-rule="evenodd" d="M23.54,38.53 C19.7903385,38.5350307 16.7412093,35.5095867 16.717,31.76 C16.8255766,30.0732378 17.4631225,28.4636269 18.539,27.16 L18.539,12.32 C18.539,9.55857625 20.7775763,7.32 23.539,7.32 C26.3004237,7.32 28.539,9.55857625 28.539,12.32 L28.539,27.23 C29.6102929,28.5054166 30.2347422,30.0963926 30.317,31.76 C30.3142396,35.5005575 27.2805583,38.5311052 23.54,38.53 L23.54,38.53 Z M23.54,36.53 C20.9007049,36.5300515 18.7564956,34.3992436 18.74,31.76 C18.7997427,30.2975346 19.468788,28.9268077 20.585,27.98 L20.585,12.32 C20.585,10.6631458 21.9281458,9.32 23.585,9.32 C25.2418542,9.32 26.585,10.6631458 26.585,12.32 L26.585,28.04 C27.6667048,28.9782253 28.3033845,30.328538 28.339,31.76 C28.3225069,34.3988536 26.1789051,36.5295018 23.54,36.53 L23.54,36.53 Z M26.246,31.62 C26.2529343,33.0356119 25.1928238,34.2293465 23.7863093,34.389728 C22.3797948,34.5501095 21.078155,33.6256796 20.7662174,32.2448464 C20.4542799,30.8640133 21.2321293,29.4698157 22.571,29.01 L22.571,12.17 C22.571,11.6453295 22.9963295,11.22 23.521,11.22 C24.0456705,11.22 24.471,11.6453295 24.471,12.17 L24.471,29.04 C25.5395959,29.4497739 26.2453003,30.4755301 26.246,31.62 L26.246,31.62 Z M31.517,15.2 L35.517,15.2 C36.0692847,15.2 36.517,15.6477153 36.517,16.2 C36.517,16.7522847 36.0692847,17.2 35.517,17.2 L31.517,17.2 C30.9647153,17.2 30.517,16.7522847 30.517,16.2 C30.517,15.6477153 30.9647153,15.2 31.517,15.2 L31.517,15.2 Z M31.517,11.2 L35.517,11.2 C36.0692847,11.2 36.517,11.6477153 36.517,12.2 C36.517,12.7522847 36.0692847,13.2 35.517,13.2 L31.517,13.2 C30.9647153,13.2 30.517,12.7522847 30.517,12.2 C30.517,11.6477153 30.9647153,11.2 31.517,11.2 L31.517,11.2 Z M31.517,19.2 L35.517,19.2 C36.0692847,19.2 36.517,19.6477153 36.517,20.2 C36.517,20.7522847 36.0692847,21.2 35.517,21.2 L31.517,21.2 C30.9647153,21.2 30.517,20.7522847 30.517,20.2 C30.517,19.6477153 30.9647153,19.2 31.517,19.2 L31.517,19.2 Z M31.517,23.2 L35.517,23.2 C36.0692847,23.2 36.517,23.6477153 36.517,24.2 C36.517,24.7522847 36.0692847,25.2 35.517,25.2 L31.517,25.2 C30.9647153,25.2 30.517,24.7522847 30.517,24.2 C30.517,23.6477153 30.9647153,23.2 31.517,23.2 L31.517,23.2 Z M23.7,2.27373675e-13 C36.7891486,2.27373675e-13 47.4,10.6108514 47.4,23.7 C47.4,36.7891486 36.7891486,47.4 23.7,47.4 C10.6108514,47.4 0,36.7891486 0,23.7 C0,17.4143692 2.49695712,11.3861815 6.94156929,6.94156929 C11.3861815,2.49695712 17.4143692,2.27373675e-13 23.7,2.27373675e-13 L23.7,2.27373675e-13 Z M23.7,45.4 C11.7154209,45.4 2,35.6845791 2,23.7 C2,11.7154209 11.7154209,2 23.7,2 C35.6845791,2 45.4,11.7154209 45.4,23.7 C45.3878733,35.6795524 35.6795524,45.3878733 23.7,45.4 L23.7,45.4 Z"></path>
</svg>