<svg xmlns="http://www.w3.org/2000/svg">

  <symbol id="manufacture" viewBox="0 0 48 48">
    <path fill-rule="evenodd" fill="#323232" d="M29.654,9.65 C27.2020625,7.19760962 23.5143764,6.46349579 20.3101856,7.78991124 C17.1059949,9.1163267 15.016165,12.2421166 15.015,15.71 L15.015,30.39 C15.0144681,30.6048146 15.099499,30.8109988 15.2513025,30.9629899 C15.403106,31.114981 15.6091849,31.2002665 15.824,31.2 L31.357,31.2 C31.5718151,31.2002665 31.777894,31.114981 31.9296975,30.9629899 C32.081501,30.8109988 32.1665319,30.6048146 32.166,30.39 L32.166,15.71 C32.1719439,13.4355136 31.2673505,11.2532541 29.654,9.65 L29.654,9.65 Z M30.548,29.58 L16.633,29.58 L16.633,18.69 C16.678,18.74 16.725,18.79 16.776,18.85 C17.265043,19.5575908 18.070356,19.979943 18.9305,19.979943 C19.790644,19.979943 20.595957,19.5575908 21.085,18.85 C21.2799245,18.5041676 21.6350713,18.2789159 22.031,18.25 C22.1707665,18.3629643 22.2775087,18.5115053 22.34,18.68 C22.5274005,19.0763315 22.6903717,19.4837596 22.828,19.9 C23.0094001,20.470614 23.2437533,21.0230179 23.528,21.55 C23.7999778,22.2036924 24.4384847,22.6296006 25.1465,22.6296006 C25.8545153,22.6296006 26.4930222,22.2036924 26.765,21.55 C27.0492046,21.0229977 27.283556,20.4705977 27.465,19.9 C27.6024485,19.483694 27.7654241,19.076255 27.953,18.68 C28.0154913,18.5115053 28.1222335,18.3629643 28.262,18.25 C28.6578706,18.2790916 29.0129413,18.504295 29.208,18.85 C29.5599734,19.296875 30.0245404,19.6420214 30.554,19.85 L30.554,29.58 L30.548,29.58 Z M21.541,38.16 C21.541,39.2921837 22.4588163,40.21 23.591,40.21 C24.7231837,40.21 25.641,39.2921837 25.641,38.16 L25.641,32 L21.541,32 L21.541,38.16 L21.541,38.16 Z M23.7,2.27373675e-13 C36.7891486,2.27373675e-13 47.4,10.6108514 47.4,23.7 C47.4,36.7891486 36.7891486,47.4 23.7,47.4 C10.6108514,47.4 7.10542736e-15,36.7891486 7.10542736e-15,23.7 C7.10542736e-15,10.6108514 10.6108514,2.27373675e-13 23.7,2.27373675e-13 L23.7,2.27373675e-13 Z M23.7,45.4 C11.7154209,45.4 2,35.6845791 2,23.7 C2,11.7154209 11.7154209,2 23.7,2 C35.6845791,2 45.4,11.7154209 45.4,23.7 C45.3878733,35.6795524 35.6795524,45.3878733 23.7,45.4 L23.7,45.4 Z"></path>
  </symbol>

  <symbol id="supply" viewBox="0 0 48 48">
	<path fill-rule="evenodd" fill="#323232" d="M39.0920013,23.2 C38.6125674,23.893508 37.8067571,24.2875103 36.9650012,24.24 C35.8378804,24.1587179 34.7347723,23.8741323 33.7090011,23.4 C33.8952149,26.2716396 33.3531171,29.1437946 32.133001,31.75 C32.6168513,32.6994408 32.7973265,33.7746119 32.6500011,34.83 C32.162001,38.21 28.3670009,40.06 24.1260008,40.06 C19.8850006,40.06 16.1080005,38.21 15.6460005,34.83 C15.5270705,33.942826 15.6407887,33.0399729 15.9760005,32.21 C14.6299607,29.5053998 14.0142767,26.4959254 14.1900005,23.48 C13.2216002,23.9134169 12.1837057,24.1707741 11.1250004,24.24 C10.2832445,24.2875103 9.47743411,23.893508 8.99800029,23.2 C8.57044547,22.535547 8.50943543,21.6994834 8.83600028,20.98 C9.64800031,19.07 12.4290004,18.24 13.5860004,17.97 L13.6860004,17.95 C12.2860004,15.05 12.9630004,10.35 13.4860004,8.76 L16.5430005,9.01 C16.5990005,10.01 17.3090006,11.89 19.9790006,14.02 L21.5640007,15.11 C22.355078,14.9586592 23.1585788,14.881657 23.9640008,14.88 C24.7317719,14.8808406 25.4978933,14.951127 26.2530008,15.09 L27.9450009,13.93 C30.615001,11.8 31.324001,9.92 31.380001,8.92 L34.4380011,8.66 C34.9660011,10.26 35.6450011,15.01 34.2140011,17.9 L34.5080011,17.97 C35.6650011,18.24 38.4450012,19.07 39.2580013,20.98 C39.5833773,21.7001525 39.5208586,22.5362451 39.0920013,23.2 L39.0920013,23.2 Z M10.6610003,21.77 C10.1580003,22.96 13.8160004,21.63 14.4960005,21.07 C14.2364949,20.7369255 14.0729378,20.3392708 14.0230005,19.92 C14.0230005,19.92 11.1640004,20.58 10.6610003,21.77 Z M17.3230006,19.99 C15.5710005,22.74 15.7450005,26.99 17.7900006,31.36 L18.1570006,32.14 L17.8390006,32.94 C17.6311045,33.453022 17.5594503,34.0110985 17.6310006,34.56 C17.9600006,36.97 21.2310007,38.06 24.1310008,38.06 C27.0310009,38.06 30.331001,36.96 30.676001,34.54 C30.765518,33.8877728 30.6502041,33.2238443 30.346001,32.64 L29.930001,31.8 L30.308001,30.94 C32.186001,26.69 32.278001,22.57 30.552001,19.92 C29.2520009,17.93 26.9770009,16.88 23.9650008,16.88 C20.9140007,16.88 18.6140006,17.95 17.3200006,19.99 L17.3230006,19.99 Z M37.4160012,21.77 C36.9160012,20.58 34.0550011,19.92 34.0550011,19.92 C34.0042289,20.3392293 33.84038,20.7367529 33.5810011,21.07 C34.2590011,21.63 37.9140012,22.95 37.4140012,21.77 L37.4160012,21.77 Z M15.1110005,10.65 C14.7110005,12.83 14.5270005,16.27 15.8110005,17.64 C16.7631499,16.8973843 17.7775758,16.2382751 18.8430006,15.67 C18.8430006,15.67 15.2510005,13.19 15.1110005,10.65 Z M32.8140011,10.56 C33.2140011,12.73 33.3980011,16.17 32.109001,17.54 C31.1512141,16.8043327 30.1367143,16.1456101 29.0750009,15.57 C29.0750009,15.57 32.6730011,13.1 32.8140011,10.56 Z M23.7000008,2.27373675e-13 C36.7891498,0 47.4000015,10.6108514 47.4000015,23.7 C47.4000015,36.7891486 36.7891498,47.4 23.7000008,47.4 C10.6108518,47.4 0,36.7891486 0,23.7 C-1.04854852e-07,10.6120229 10.6090234,0.00165670596 23.6970008,0 L23.7000008,2.27373675e-13 Z M23.7000008,45.4 C11.7154213,45.4 2.00000006,35.6845791 2.00000006,23.7 C2.00000006,11.7154209 11.7154213,2 23.7000008,2 C35.6845802,2 45.4000015,11.7154209 45.4000015,23.7 C45.387872,35.6807224 35.6777251,45.3895267 23.6970008,45.4 L23.7000008,45.4 Z"></path>
  </symbol>

  <symbol id="quality" viewBox="0 0 48 48">
    <path fill-rule="evenodd" fill="#323232" d="M23.64,7.07000019 C45.88,29.6400002 23.64,39.8200002 23.64,39.8200002 C23.64,39.8200002 1.4,29.6400002 23.64,7.07000019 Z M31.156,22.6400002 L24.62,26.8000002 L24.62,26.8000002 L24.599,30.4800002 L31.493,26.0700002 C31.5291184,24.9169159 31.4158441,23.764006 31.156,22.6400002 L31.156,22.6400002 Z M15.766,25.8300002 L22.599,30.3100002 L22.599,26.6900002 L16.146,22.5400002 C15.8859941,23.6171298 15.7583845,24.7219599 15.766,25.8300002 L15.766,25.8300002 Z M22.599,24.3100002 L22.599,20.6800002 L18.203,17.3000002 C17.6274217,18.3382498 17.1377872,19.4218672 16.739,20.5400002 L22.599,24.3100002 Z M22.599,18.2200002 L22.599,11.1800002 C21.3772729,12.5721628 20.2557941,14.0491997 19.243,15.6000002 L22.599,18.2200002 Z M24.599,18.5000002 L28.228,15.9000002 C27.1430091,14.2031475 25.9298031,12.5917798 24.599,11.0800002 L24.599,18.5000002 L24.599,18.5000002 Z M24.62,20.8000002 L24.62,20.8000002 L24.599,24.4800002 L30.58,20.6300002 C30.2111786,19.5942656 29.7642265,18.5880385 29.243,17.6200002 L24.62,20.8000002 Z M31.063,28.7000002 L24.62,32.8000002 L24.62,32.8000002 L24.599,36.9600002 C27.6592138,35.0541055 29.9481137,32.1287901 31.062,28.7000002 L31.063,28.7000002 Z M22.6,36.9000002 L22.6,32.6900002 L16.183,28.5600002 C17.288,32.7000002 20.503,35.4900002 22.603,36.9000002 L22.6,36.9000002 Z M23.7,1.90148739e-07 C36.7891486,1.90148739e-07 47.4,10.6108516 47.4,23.7000002 C47.4,36.7891488 36.7891486,47.4000002 23.7,47.4000002 C10.6108514,47.4000002 0,36.7891488 0,23.7000002 C-5.03617557e-08,17.4138496 2.49736888,11.3852071 6.94262991,6.94050873 C11.3878909,2.49581031 17.4168494,-0.000795525121 23.703,1.90148739e-07 L23.7,1.90148739e-07 Z M23.7,45.4000002 C11.7154209,45.4000002 2,35.6845793 2,23.7000002 C2,11.7154211 11.7154209,2.00000019 23.7,2.00000019 C35.6845791,2.00000019 45.4,11.7154211 45.4,23.7000002 C45.3878762,35.6783828 35.6813808,45.3862203 23.703,45.4000002 L23.7,45.4000002 Z"></path>
  </symbol>

  <symbol id="delivery" viewBox="0 0 48 48">
    <path fill-rule="evenodd" fill="#323232" d="M23.64,7.07000019 C45.88,29.6400002 23.64,39.8200002 23.64,39.8200002 C23.64,39.8200002 1.4,29.6400002 23.64,7.07000019 Z M31.156,22.6400002 L24.62,26.8000002 L24.62,26.8000002 L24.599,30.4800002 L31.493,26.0700002 C31.5291184,24.9169159 31.4158441,23.764006 31.156,22.6400002 L31.156,22.6400002 Z M15.766,25.8300002 L22.599,30.3100002 L22.599,26.6900002 L16.146,22.5400002 C15.8859941,23.6171298 15.7583845,24.7219599 15.766,25.8300002 L15.766,25.8300002 Z M22.599,24.3100002 L22.599,20.6800002 L18.203,17.3000002 C17.6274217,18.3382498 17.1377872,19.4218672 16.739,20.5400002 L22.599,24.3100002 Z M22.599,18.2200002 L22.599,11.1800002 C21.3772729,12.5721628 20.2557941,14.0491997 19.243,15.6000002 L22.599,18.2200002 Z M24.599,18.5000002 L28.228,15.9000002 C27.1430091,14.2031475 25.9298031,12.5917798 24.599,11.0800002 L24.599,18.5000002 L24.599,18.5000002 Z M24.62,20.8000002 L24.62,20.8000002 L24.599,24.4800002 L30.58,20.6300002 C30.2111786,19.5942656 29.7642265,18.5880385 29.243,17.6200002 L24.62,20.8000002 Z M31.063,28.7000002 L24.62,32.8000002 L24.62,32.8000002 L24.599,36.9600002 C27.6592138,35.0541055 29.9481137,32.1287901 31.062,28.7000002 L31.063,28.7000002 Z M22.6,36.9000002 L22.6,32.6900002 L16.183,28.5600002 C17.288,32.7000002 20.503,35.4900002 22.603,36.9000002 L22.6,36.9000002 Z M23.7,1.90148739e-07 C36.7891486,1.90148739e-07 47.4,10.6108516 47.4,23.7000002 C47.4,36.7891488 36.7891486,47.4000002 23.7,47.4000002 C10.6108514,47.4000002 0,36.7891488 0,23.7000002 C-5.03617557e-08,17.4138496 2.49736888,11.3852071 6.94262991,6.94050873 C11.3878909,2.49581031 17.4168494,-0.000795525121 23.703,1.90148739e-07 L23.7,1.90148739e-07 Z M23.7,45.4000002 C11.7154209,45.4000002 2,35.6845793 2,23.7000002 C2,11.7154211 11.7154209,2.00000019 23.7,2.00000019 C35.6845791,2.00000019 45.4,11.7154211 45.4,23.7000002 C45.3878762,35.6783828 35.6813808,45.3862203 23.703,45.4000002 L23.7,45.4000002 Z"></path>
  </symbol>

</svg>
