<svg width="48px" height="48px" viewBox="0 0 48 48" version="1.1" xmlns="http://www.w3.org/2000/svg">
    <path fill-rule="evenodd" fill="#323232" d="M29.654,9.65 C27.2020625,7.19760962 23.5143764,6.46349579 20.3101856,7.78991124 C17.1059949,9.1163267 15.016165,12.2421166 15.015,15.71 L15.015,30.39 C15.0144681,30.6048146 15.099499,30.8109988 15.2513025,30.9629899 C15.403106,31.114981 15.6091849,31.2002665 15.824,31.2 L31.357,31.2 C31.5718151,31.2002665 31.777894,31.114981 31.9296975,30.9629899 C32.081501,30.8109988 32.1665319,30.6048146 32.166,30.39 L32.166,15.71 C32.1719439,13.4355136 31.2673505,11.2532541 29.654,9.65 L29.654,9.65 Z M30.548,29.58 L16.633,29.58 L16.633,18.69 C16.678,18.74 16.725,18.79 16.776,18.85 C17.265043,19.5575908 18.070356,19.979943 18.9305,19.979943 C19.790644,19.979943 20.595957,19.5575908 21.085,18.85 C21.2799245,18.5041676 21.6350713,18.2789159 22.031,18.25 C22.1707665,18.3629643 22.2775087,18.5115053 22.34,18.68 C22.5274005,19.0763315 22.6903717,19.4837596 22.828,19.9 C23.0094001,20.470614 23.2437533,21.0230179 23.528,21.55 C23.7999778,22.2036924 24.4384847,22.6296006 25.1465,22.6296006 C25.8545153,22.6296006 26.4930222,22.2036924 26.765,21.55 C27.0492046,21.0229977 27.283556,20.4705977 27.465,19.9 C27.6024485,19.483694 27.7654241,19.076255 27.953,18.68 C28.0154913,18.5115053 28.1222335,18.3629643 28.262,18.25 C28.6578706,18.2790916 29.0129413,18.504295 29.208,18.85 C29.5599734,19.296875 30.0245404,19.6420214 30.554,19.85 L30.554,29.58 L30.548,29.58 Z M21.541,38.16 C21.541,39.2921837 22.4588163,40.21 23.591,40.21 C24.7231837,40.21 25.641,39.2921837 25.641,38.16 L25.641,32 L21.541,32 L21.541,38.16 L21.541,38.16 Z M23.7,2.27373675e-13 C36.7891486,2.27373675e-13 47.4,10.6108514 47.4,23.7 C47.4,36.7891486 36.7891486,47.4 23.7,47.4 C10.6108514,47.4 7.10542736e-15,36.7891486 7.10542736e-15,23.7 C7.10542736e-15,10.6108514 10.6108514,2.27373675e-13 23.7,2.27373675e-13 L23.7,2.27373675e-13 Z M23.7,45.4 C11.7154209,45.4 2,35.6845791 2,23.7 C2,11.7154209 11.7154209,2 23.7,2 C35.6845791,2 45.4,11.7154209 45.4,23.7 C45.3878733,35.6795524 35.6795524,45.3878733 23.7,45.4 L23.7,45.4 Z"></path>
</svg>