<svg width="48px" height="48px" viewBox="0 0 48 48" version="1.1" xmlns="http://www.w3.org/2000/svg">
    <path fill-rule="evenodd" fill="#323232" d="M23.64,7.07000019 C45.88,29.6400002 23.64,39.8200002 23.64,39.8200002 C23.64,39.8200002 1.4,29.6400002 23.64,7.07000019 Z M31.156,22.6400002 L24.62,26.8000002 L24.62,26.8000002 L24.599,30.4800002 L31.493,26.0700002 C31.5291184,24.9169159 31.4158441,23.764006 31.156,22.6400002 L31.156,22.6400002 Z M15.766,25.8300002 L22.599,30.3100002 L22.599,26.6900002 L16.146,22.5400002 C15.8859941,23.6171298 15.7583845,24.7219599 15.766,25.8300002 L15.766,25.8300002 Z M22.599,24.3100002 L22.599,20.6800002 L18.203,17.3000002 C17.6274217,18.3382498 17.1377872,19.4218672 16.739,20.5400002 L22.599,24.3100002 Z M22.599,18.2200002 L22.599,11.1800002 C21.3772729,12.5721628 20.2557941,14.0491997 19.243,15.6000002 L22.599,18.2200002 Z M24.599,18.5000002 L28.228,15.9000002 C27.1430091,14.2031475 25.9298031,12.5917798 24.599,11.0800002 L24.599,18.5000002 L24.599,18.5000002 Z M24.62,20.8000002 L24.62,20.8000002 L24.599,24.4800002 L30.58,20.6300002 C30.2111786,19.5942656 29.7642265,18.5880385 29.243,17.6200002 L24.62,20.8000002 Z M31.063,28.7000002 L24.62,32.8000002 L24.62,32.8000002 L24.599,36.9600002 C27.6592138,35.0541055 29.9481137,32.1287901 31.062,28.7000002 L31.063,28.7000002 Z M22.6,36.9000002 L22.6,32.6900002 L16.183,28.5600002 C17.288,32.7000002 20.503,35.4900002 22.603,36.9000002 L22.6,36.9000002 Z M23.7,1.90148739e-07 C36.7891486,1.90148739e-07 47.4,10.6108516 47.4,23.7000002 C47.4,36.7891488 36.7891486,47.4000002 23.7,47.4000002 C10.6108514,47.4000002 0,36.7891488 0,23.7000002 C-5.03617557e-08,17.4138496 2.49736888,11.3852071 6.94262991,6.94050873 C11.3878909,2.49581031 17.4168494,-0.000795525121 23.703,1.90148739e-07 L23.7,1.90148739e-07 Z M23.7,45.4000002 C11.7154209,45.4000002 2,35.6845793 2,23.7000002 C2,11.7154211 11.7154209,2.00000019 23.7,2.00000019 C35.6845791,2.00000019 45.4,11.7154211 45.4,23.7000002 C45.3878762,35.6783828 35.6813808,45.3862203 23.703,45.4000002 L23.7,45.4000002 Z"></path>
</svg>