<svg width="48px" height="48px" viewBox="0 0 48 48" version="1.1" xmlns="http://www.w3.org/2000/svg">
    <path fill-rule="evenodd" fill="#323232" d="M39.0920013,23.2 C38.6125674,23.893508 37.8067571,24.2875103 36.9650012,24.24 C35.8378804,24.1587179 34.7347723,23.8741323 33.7090011,23.4 C33.8952149,26.2716396 33.3531171,29.1437946 32.133001,31.75 C32.6168513,32.6994408 32.7973265,33.7746119 32.6500011,34.83 C32.162001,38.21 28.3670009,40.06 24.1260008,40.06 C19.8850006,40.06 16.1080005,38.21 15.6460005,34.83 C15.5270705,33.942826 15.6407887,33.0399729 15.9760005,32.21 C14.6299607,29.5053998 14.0142767,26.4959254 14.1900005,23.48 C13.2216002,23.9134169 12.1837057,24.1707741 11.1250004,24.24 C10.2832445,24.2875103 9.47743411,23.893508 8.99800029,23.2 C8.57044547,22.535547 8.50943543,21.6994834 8.83600028,20.98 C9.64800031,19.07 12.4290004,18.24 13.5860004,17.97 L13.6860004,17.95 C12.2860004,15.05 12.9630004,10.35 13.4860004,8.76 L16.5430005,9.01 C16.5990005,10.01 17.3090006,11.89 19.9790006,14.02 L21.5640007,15.11 C22.355078,14.9586592 23.1585788,14.881657 23.9640008,14.88 C24.7317719,14.8808406 25.4978933,14.951127 26.2530008,15.09 L27.9450009,13.93 C30.615001,11.8 31.324001,9.92 31.380001,8.92 L34.4380011,8.66 C34.9660011,10.26 35.6450011,15.01 34.2140011,17.9 L34.5080011,17.97 C35.6650011,18.24 38.4450012,19.07 39.2580013,20.98 C39.5833773,21.7001525 39.5208586,22.5362451 39.0920013,23.2 L39.0920013,23.2 Z M10.6610003,21.77 C10.1580003,22.96 13.8160004,21.63 14.4960005,21.07 C14.2364949,20.7369255 14.0729378,20.3392708 14.0230005,19.92 C14.0230005,19.92 11.1640004,20.58 10.6610003,21.77 Z M17.3230006,19.99 C15.5710005,22.74 15.7450005,26.99 17.7900006,31.36 L18.1570006,32.14 L17.8390006,32.94 C17.6311045,33.453022 17.5594503,34.0110985 17.6310006,34.56 C17.9600006,36.97 21.2310007,38.06 24.1310008,38.06 C27.0310009,38.06 30.331001,36.96 30.676001,34.54 C30.765518,33.8877728 30.6502041,33.2238443 30.346001,32.64 L29.930001,31.8 L30.308001,30.94 C32.186001,26.69 32.278001,22.57 30.552001,19.92 C29.2520009,17.93 26.9770009,16.88 23.9650008,16.88 C20.9140007,16.88 18.6140006,17.95 17.3200006,19.99 L17.3230006,19.99 Z M37.4160012,21.77 C36.9160012,20.58 34.0550011,19.92 34.0550011,19.92 C34.0042289,20.3392293 33.84038,20.7367529 33.5810011,21.07 C34.2590011,21.63 37.9140012,22.95 37.4140012,21.77 L37.4160012,21.77 Z M15.1110005,10.65 C14.7110005,12.83 14.5270005,16.27 15.8110005,17.64 C16.7631499,16.8973843 17.7775758,16.2382751 18.8430006,15.67 C18.8430006,15.67 15.2510005,13.19 15.1110005,10.65 Z M32.8140011,10.56 C33.2140011,12.73 33.3980011,16.17 32.109001,17.54 C31.1512141,16.8043327 30.1367143,16.1456101 29.0750009,15.57 C29.0750009,15.57 32.6730011,13.1 32.8140011,10.56 Z M23.7000008,2.27373675e-13 C36.7891498,0 47.4000015,10.6108514 47.4000015,23.7 C47.4000015,36.7891486 36.7891498,47.4 23.7000008,47.4 C10.6108518,47.4 0,36.7891486 0,23.7 C-1.04854852e-07,10.6120229 10.6090234,0.00165670596 23.6970008,0 L23.7000008,2.27373675e-13 Z M23.7000008,45.4 C11.7154213,45.4 2.00000006,35.6845791 2.00000006,23.7 C2.00000006,11.7154209 11.7154213,2 23.7000008,2 C35.6845802,2 45.4000015,11.7154209 45.4000015,23.7 C45.387872,35.6807224 35.6777251,45.3895267 23.6970008,45.4 L23.7000008,45.4 Z"></path>
</svg>