<?xml version="1.0" encoding="UTF-8" standalone="no"?>
<svg width="32px" height="32px" viewBox="0 0 32 32" version="1.1" xmlns="http://www.w3.org/2000/svg" xmlns:xlink="http://www.w3.org/1999/xlink">
    <!-- Generator: Sketch 3.7.2 (28276) - http://www.bohemiancoding.com/sketch -->
    <title>Desktop HD</title>
    <desc>Created with Sketch.</desc>
    <defs></defs>
    <g id="Welcome" stroke="none" stroke-width="1" fill="none" fill-rule="evenodd" fill-opacity="0.99">
        <g id="Desktop-HD" fill="#FFFFFF">
            <path d="M9,10.96 L9,10 C9,8.34314575 10.3431458,7 12,7 L23.059,7 C24.7158542,7 26.059,8.34314575 26.059,10 L26.059,22.977 C26.059,24.6338542 24.7158542,25.977 23.059,25.977 L12,25.977 C10.3431458,25.977 9,24.6338542 9,22.977 L9,21.992 L11,21.992 L11,23.992 L24,23.992 L24,8.992 L11,8.992 L11,10.961 L9,10.961 L9,10.96 Z M6,19.006 L12.029,19.006 L12.029,21.75 L19.056,16.45 L12.029,11.15 L12.029,13.892 L6,13.892 L6,19.005 L6,19.006 Z" id="Вход"></path>
        </g>
    </g>
</svg>