<?xml version="1.0" encoding="UTF-8" standalone="no"?>
<svg width="32px" height="32px" viewBox="0 0 32 32" version="1.1" xmlns="http://www.w3.org/2000/svg" xmlns:xlink="http://www.w3.org/1999/xlink">
    <!-- Generator: Sketch 3.7.2 (28276) - http://www.bohemiancoding.com/sketch -->
    <title>Desktop HD</title>
    <desc>Created with Sketch.</desc>
    <defs></defs>
    <g id="Welcome" stroke="none" stroke-width="1" fill="none" fill-rule="evenodd">
        <g id="Desktop-HD" fill="#FFFFFF">
            <path d="M19.9429412,18.5109412 L19.1879412,18.5109412 L18.9239412,18.2489412 C21.0946746,15.7155175 20.8753615,11.9195281 18.4273085,9.65295457 C15.9792555,7.38638103 12.1776395,7.45952147 9.8185805,9.8185805 C7.45952147,12.1776395 7.38638103,15.9792555 9.65295457,18.4273085 C11.9195281,20.8753615 15.7155175,21.0946746 18.2489412,18.9239412 L18.5119412,19.1859412 L18.5119412,19.9409412 L23.2849412,24.7009412 L24.7079412,23.2789412 L19.9429412,18.5109412 Z M14.2119412,18.5109412 C11.8424513,18.5065245 9.92481795,16.5827763 9.92794503,14.2132844 C9.93107211,11.8437924 11.8537764,9.9251124 14.2232697,9.92694992 C16.592763,9.92878744 18.5124891,11.8504472 18.5119412,14.2199412 C18.5108809,15.3592196 18.0572187,16.4514002 17.2507834,17.2561477 C16.444348,18.0608951 15.3512193,18.512268 14.2119412,18.5109412 L14.2119412,18.5109412 Z" id="Лупа"></path>
        </g>
    </g>
</svg>