<svg xmlns="http://www.w3.org/2000/svg">

  <symbol id="twitter" viewBox="0 0 30 30">
    <path fill="#FFFFFF" transform="translate(-4.000000, -3.000000)" d="M0,0 L0,38 L38,38 L38,0 L0,0 L0,0 L0,0 Z M27.1066667,14.9466667 L27.1066667,15.4533333 C27.1066667,20.14 23.18,25.5866667 16.0866667,25.5866667 C13.9333333,25.5866667 11.9066667,24.9533333 10.1333333,23.94 L11.02,23.94 C12.7933333,23.94 14.5666667,23.3066667 15.8333333,22.42 C14.1866667,22.42 12.6666667,21.4066667 12.16,19.8866667 C12.4133333,19.8866667 12.6666667,20.0133333 12.92,20.0133333 C13.3,20.0133333 13.68,20.0133333 13.9333333,19.8866667 C12.16,19.5066667 10.7666667,18.1133333 10.7666667,16.34 L10.7666667,16.34 C11.2733333,16.5933333 11.9066667,16.72 12.54,16.8466667 C11.5266667,16.2133333 10.7666667,15.0733333 10.7666667,13.8066667 C10.7666667,13.1733333 11.02,12.54 11.2733333,12.0333333 C13.1733333,14.1866667 16.0866667,15.58 19.2533333,15.8333333 C19.1266667,15.58 19.1266667,15.3266667 19.1266667,15.0733333 C19.1266667,13.0466667 20.9,11.5266667 23.0533333,11.5266667 C24.1933333,11.5266667 25.2066667,11.9066667 25.84,12.6666667 C26.7266667,12.54 27.6133333,12.16 28.2466667,11.78 C27.9933333,12.6666667 27.36,13.3 26.6,13.8066667 C27.36,13.68 28.12,13.5533333 28.88,13.3 L28.88,13.3 L28.88,13.3 L28.88,13.3 C28.5,13.8066667 27.8666667,14.44 27.1066667,14.9466667 L27.1066667,14.9466667 L27.1066667,14.9466667 Z"></path>
  </symbol>

  <symbol id="instagram" viewBox="0 0 30 30">
    <g fill="#FFFFFF" transform="translate(-4.000000, -3.000000)">
      <ellipse cx="19" cy="17.7333333" rx="3.29333333" ry="3.29333333"></ellipse>
      <path d="M23.3066667,17.7333333 C23.3066667,20.14 21.4066667,22.04 19,22.04 C16.5933333,22.04 14.6933333,20.14 14.6933333,17.7333333 C14.6933333,17.3533333 14.6933333,16.9733333 14.82,16.5933333 L12.54,16.5933333 L12.54,23.0533333 C12.54,23.6866667 13.0466667,24.1933333 13.68,24.1933333 L24.5733333,24.1933333 C25.2066667,24.1933333 25.7133333,23.6866667 25.7133333,23.0533333 L25.7133333,16.5933333 L23.4333333,16.5933333 C23.3066667,16.9733333 23.3066667,17.3533333 23.3066667,17.7333333 L23.3066667,17.7333333 L23.3066667,17.7333333 Z"></path>
      <path d="M0,38 L38,38 L38,0 L0,0 L0,38 L0,38 Z M26.6,23.18 C26.6,24.32 25.5866667,25.3333333 24.4466667,25.3333333 L13.5533333,25.3333333 C12.4133333,25.3333333 11.4,24.32 11.4,23.18 L11.4,12.2866667 C11.4,11.1466667 12.4133333,10.1333333 13.5533333,10.1333333 L24.4466667,10.1333333 C25.5866667,10.1333333 26.6,11.1466667 26.6,12.2866667 L26.6,23.18 L26.6,23.18 L26.6,23.18 Z"></path>
      <path d="M24.4466667,11.1466667 L23.3066667,11.1466667 C22.6733333,11.1466667 22.1666667,11.6533333 22.1666667,12.2866667 L22.1666667,13.4266667 C22.1666667,14.06 22.6733333,14.5666667 23.3066667,14.5666667 L24.4466667,14.5666667 C25.08,14.5666667 25.5866667,14.06 25.5866667,13.4266667 L25.5866667,12.2866667 C25.46,11.6533333 25.08,11.1466667 24.4466667,11.1466667 L24.4466667,11.1466667 L24.4466667,11.1466667 Z"></path>
    </g>
  </symbol>

  <symbol id="facebook" viewBox="0 0 30 30">
    <path fill="#FFFFFF" transform="translate(-4.000000, -3.000000)" d="M0,0 L0,36 L36,36 L36,0 L0,0 L0,0 L0,0 Z M23.16,18.72 L19.8,18.72 L19.8,26.4 L16.44,26.4 L16.44,18.72 L13.32,18.72 L13.32,15.48 L16.44,15.48 L16.44,12.6 C16.44,10.44 17.88,8.4 21,8.4 C22.32,8.4 23.28,8.52 23.28,8.52 L23.16,11.52 L21.12,11.52 C19.92,11.52 19.8,12 19.8,12.96 L19.8,13.08 L19.8,15.48 L23.28,15.48 L23.16,18.72 L23.16,18.72 L23.16,18.72 Z"></path>
  </symbol>

  <symbol id="vkontakte" viewBox="0 0 30 30">
    <path fill="#FFFFFF" transform="translate(-4.000000, -4.000000)" d="M0,0 L0,38 L38,38 L38,0 L0,0 L0,0 L0,0 Z M27.1066667,23.94 L24.7,23.94 C24.7,23.94 24.1933333,24.0666667 23.56,23.56 C22.6733333,22.9266667 21.7866667,21.4066667 21.1533333,21.5333333 C20.52,21.7866667 20.52,23.18 20.52,23.18 C20.52,23.18 20.52,23.4333333 20.3933333,23.6866667 C20.2666667,23.8133333 19.8866667,23.94 19.8866667,23.94 L18.8733333,23.94 C18.8733333,23.94 16.5933333,24.0666667 14.44,21.9133333 C12.16,19.6333333 10.26,14.9466667 10.26,14.9466667 C10.26,14.9466667 10.1333333,14.6933333 10.26,14.44 C10.3866667,14.3133333 10.7666667,14.3133333 10.7666667,14.3133333 L13.3,14.3133333 C13.3,14.3133333 13.5533333,14.3133333 13.68,14.44 L13.9333333,14.6933333 C13.9333333,14.6933333 14.3133333,15.7066667 14.9466667,16.72 C15.96,18.4933333 16.4666667,19 16.8466667,18.7466667 C17.3533333,18.4933333 17.2266667,16.2133333 17.2266667,16.2133333 C17.2266667,16.2133333 17.2266667,15.3266667 16.9733333,14.9466667 C16.72,14.6933333 16.34,14.5666667 16.2133333,14.5666667 C16.0866667,14.5666667 16.34,14.1866667 16.5933333,14.06 C17.1,13.8066667 17.86,13.8066667 18.7466667,13.8066667 C19.5066667,13.8066667 19.76,13.8066667 20.0133333,13.9333333 C20.9,14.1866667 20.6466667,14.9466667 20.6466667,16.9733333 C20.6466667,17.6066667 20.52,18.4933333 21.0266667,18.7466667 C21.28,18.8733333 21.66,18.7466667 22.9266667,16.72 C23.4333333,15.7066667 23.94,14.6933333 23.94,14.6933333 C23.94,14.6933333 24.0666667,14.44 24.1933333,14.44 C24.32,14.3133333 24.5733333,14.44 24.5733333,14.44 L27.2333333,14.44 C27.2333333,14.44 27.9933333,14.3133333 28.12,14.6933333 C28.2466667,15.0733333 27.8666667,15.96 26.7266667,17.3533333 C24.9533333,19.76 24.7,19.5066667 26.22,20.9 C27.6133333,22.1666667 27.9933333,22.8 27.9933333,22.9266667 C28.2466667,23.94 27.1066667,23.94 27.1066667,23.94 L27.1066667,23.94 L27.1066667,23.94 Z"></path>
  </symbol>

</svg>
