<svg width="30px" height="30px" viewBox="0 0 30 30" version="1.1" xmlns="http://www.w3.org/2000/svg">
  <path fill="#FFFFFF" transform="translate(-4.000000, -3.000000)" d="M0,0 L0,38 L38,38 L38,0 L0,0 L0,0 L0,0 Z M27.1066667,14.9466667 L27.1066667,15.4533333 C27.1066667,20.14 23.18,25.5866667 16.0866667,25.5866667 C13.9333333,25.5866667 11.9066667,24.9533333 10.1333333,23.94 L11.02,23.94 C12.7933333,23.94 14.5666667,23.3066667 15.8333333,22.42 C14.1866667,22.42 12.6666667,21.4066667 12.16,19.8866667 C12.4133333,19.8866667 12.6666667,20.0133333 12.92,20.0133333 C13.3,20.0133333 13.68,20.0133333 13.9333333,19.8866667 C12.16,19.5066667 10.7666667,18.1133333 10.7666667,16.34 L10.7666667,16.34 C11.2733333,16.5933333 11.9066667,16.72 12.54,16.8466667 C11.5266667,16.2133333 10.7666667,15.0733333 10.7666667,13.8066667 C10.7666667,13.1733333 11.02,12.54 11.2733333,12.0333333 C13.1733333,14.1866667 16.0866667,15.58 19.2533333,15.8333333 C19.1266667,15.58 19.1266667,15.3266667 19.1266667,15.0733333 C19.1266667,13.0466667 20.9,11.5266667 23.0533333,11.5266667 C24.1933333,11.5266667 25.2066667,11.9066667 25.84,12.6666667 C26.7266667,12.54 27.6133333,12.16 28.2466667,11.78 C27.9933333,12.6666667 27.36,13.3 26.6,13.8066667 C27.36,13.68 28.12,13.5533333 28.88,13.3 L28.88,13.3 L28.88,13.3 L28.88,13.3 C28.5,13.8066667 27.8666667,14.44 27.1066667,14.9466667 L27.1066667,14.9466667 L27.1066667,14.9466667 Z"></path>
</svg>
