<svg width="30px" height="30px" viewBox="0 0 30 30" version="1.1" xmlns="http://www.w3.org/2000/svg">
  <g fill="#FFFFFF" transform="translate(-4.000000, -3.000000)">
    <ellipse id="Oval" cx="19" cy="17.7333333" rx="3.29333333" ry="3.29333333"></ellipse>
    <path d="M23.3066667,17.7333333 C23.3066667,20.14 21.4066667,22.04 19,22.04 C16.5933333,22.04 14.6933333,20.14 14.6933333,17.7333333 C14.6933333,17.3533333 14.6933333,16.9733333 14.82,16.5933333 L12.54,16.5933333 L12.54,23.0533333 C12.54,23.6866667 13.0466667,24.1933333 13.68,24.1933333 L24.5733333,24.1933333 C25.2066667,24.1933333 25.7133333,23.6866667 25.7133333,23.0533333 L25.7133333,16.5933333 L23.4333333,16.5933333 C23.3066667,16.9733333 23.3066667,17.3533333 23.3066667,17.7333333 L23.3066667,17.7333333 L23.3066667,17.7333333 Z" id="Shape"></path>
    <path d="M0,38 L38,38 L38,0 L0,0 L0,38 L0,38 Z M26.6,23.18 C26.6,24.32 25.5866667,25.3333333 24.4466667,25.3333333 L13.5533333,25.3333333 C12.4133333,25.3333333 11.4,24.32 11.4,23.18 L11.4,12.2866667 C11.4,11.1466667 12.4133333,10.1333333 13.5533333,10.1333333 L24.4466667,10.1333333 C25.5866667,10.1333333 26.6,11.1466667 26.6,12.2866667 L26.6,23.18 L26.6,23.18 L26.6,23.18 Z" id="Shape"></path>
    <path d="M24.4466667,11.1466667 L23.3066667,11.1466667 C22.6733333,11.1466667 22.1666667,11.6533333 22.1666667,12.2866667 L22.1666667,13.4266667 C22.1666667,14.06 22.6733333,14.5666667 23.3066667,14.5666667 L24.4466667,14.5666667 C25.08,14.5666667 25.5866667,14.06 25.5866667,13.4266667 L25.5866667,12.2866667 C25.46,11.6533333 25.08,11.1466667 24.4466667,11.1466667 L24.4466667,11.1466667 L24.4466667,11.1466667 Z" id="Shape"></path>
  </g>
</svg>
