<?xml version="1.0" encoding="UTF-8" standalone="no"?>
<svg width="21px" height="20px" viewBox="0 0 21 20" version="1.1" xmlns="http://www.w3.org/2000/svg" xmlns:xlink="http://www.w3.org/1999/xlink">
    <!-- Generator: Sketch 3.7.2 (28276) - http://www.bohemiancoding.com/sketch -->
    <title>cart__handler_fill_hover</title>
    <desc>Created with Sketch.</desc>
    <defs></defs>
    <g id="Welcome" stroke="none" stroke-width="1" fill="none" fill-rule="evenodd">
        <g id="cart__handler_fill_hover">
            <path d="M20.58,4.42907136 L19.37,13.3410714 C19.1924377,14.2527175 18.4174639,14.9266974 17.49,14.9760714 L6.61,14.9760714 C5.68253613,14.9266974 4.90756231,14.2527175 4.73,13.3410714 L3.26,3.05407136 C3.16665799,2.71072874 3.12288179,2.35580471 3.13,2.00007136 L1,2.00007136 C0.44771525,2.00007136 0,1.55235611 0,1.00007136 C0,0.447786607 0.44771525,7.13570871e-05 1,7.13570871e-05 L5,7.13570871e-05 C5.53294182,-0.00626124071 5.9756398,0.409663115 6.00252369,0.9419641 C6.02940758,1.47426509 5.63086795,1.93267619 5.1,1.98007136 L19.07,1.98007136 C20.17,1.97907136 20.84,3.11007136 20.58,4.42907136 L20.58,4.42907136 Z M7.25,15.9550714 C8.28487854,15.957831 9.12183561,16.7985152 9.11999704,17.8333958 C9.11815848,18.8682764 8.27821959,19.7059814 7.24333778,19.705064 C6.20845596,19.7041465 5.37000368,18.8649536 5.37,17.8300714 C5.36999823,17.3319229 5.56822851,16.85425 5.92094137,16.5024752 C6.27365423,16.1507004 6.75185333,15.953743 7.25,15.9550714 L7.25,15.9550714 Z M16.25,15.9550714 C17.2848785,15.957831 18.1218356,16.7985152 18.119997,17.8333958 C18.1181585,18.8682764 17.2782196,19.7059814 16.2433378,19.705064 C15.208456,19.7041465 14.3700037,18.8649536 14.37,17.8300714 C14.3699982,17.3319229 14.5682285,16.85425 14.9209414,16.5024752 C15.2736542,16.1507004 15.7518533,15.953743 16.25,15.9550714 L16.25,15.9550714 Z" id="Корзина" fill="#343434"></path>
            <path d="M5.42,3.94707136 L18.62,3.94707136 L18.59,4.14707136 L17.41,12.9350714 C17.4055216,12.9388035 6.73,12.9490714 6.73,12.9490714 L5.42,3.94707136 Z" id="Корзина-path" fill="#E84D37"></path>
        </g>
    </g>
</svg>