<svg width="30px" height="30px" viewBox="0 0 30 30" version="1.1" xmlns="http://www.w3.org/2000/svg" xmlns:xlink="http://www.w3.org/1999/xlink">
    <g id="Welcome" stroke="none" stroke-width="1" fill="none" fill-rule="evenodd">
        <g id="Desktop-HD" fill="#FFFFFF">
            <g id="Welcome" transform="translate(-4.000000, -4.000000)">
                <g id="Desktop-HD">
                    <path d="M0,0 L0,38 L38,38 L38,0 L0,0 L0,0 L0,0 Z M27.1066667,23.94 L24.7,23.94 C24.7,23.94 24.1933333,24.0666667 23.56,23.56 C22.6733333,22.9266667 21.7866667,21.4066667 21.1533333,21.5333333 C20.52,21.7866667 20.52,23.18 20.52,23.18 C20.52,23.18 20.52,23.4333333 20.3933333,23.6866667 C20.2666667,23.8133333 19.8866667,23.94 19.8866667,23.94 L18.8733333,23.94 C18.8733333,23.94 16.5933333,24.0666667 14.44,21.9133333 C12.16,19.6333333 10.26,14.9466667 10.26,14.9466667 C10.26,14.9466667 10.1333333,14.6933333 10.26,14.44 C10.3866667,14.3133333 10.7666667,14.3133333 10.7666667,14.3133333 L13.3,14.3133333 C13.3,14.3133333 13.5533333,14.3133333 13.68,14.44 L13.9333333,14.6933333 C13.9333333,14.6933333 14.3133333,15.7066667 14.9466667,16.72 C15.96,18.4933333 16.4666667,19 16.8466667,18.7466667 C17.3533333,18.4933333 17.2266667,16.2133333 17.2266667,16.2133333 C17.2266667,16.2133333 17.2266667,15.3266667 16.9733333,14.9466667 C16.72,14.6933333 16.34,14.5666667 16.2133333,14.5666667 C16.0866667,14.5666667 16.34,14.1866667 16.5933333,14.06 C17.1,13.8066667 17.86,13.8066667 18.7466667,13.8066667 C19.5066667,13.8066667 19.76,13.8066667 20.0133333,13.9333333 C20.9,14.1866667 20.6466667,14.9466667 20.6466667,16.9733333 C20.6466667,17.6066667 20.52,18.4933333 21.0266667,18.7466667 C21.28,18.8733333 21.66,18.7466667 22.9266667,16.72 C23.4333333,15.7066667 23.94,14.6933333 23.94,14.6933333 C23.94,14.6933333 24.0666667,14.44 24.1933333,14.44 C24.32,14.3133333 24.5733333,14.44 24.5733333,14.44 L27.2333333,14.44 C27.2333333,14.44 27.9933333,14.3133333 28.12,14.6933333 C28.2466667,15.0733333 27.8666667,15.96 26.7266667,17.3533333 C24.9533333,19.76 24.7,19.5066667 26.22,20.9 C27.6133333,22.1666667 27.9933333,22.8 27.9933333,22.9266667 C28.2466667,23.94 27.1066667,23.94 27.1066667,23.94 L27.1066667,23.94 L27.1066667,23.94 Z" id="Shape"></path>
                </g>
            </g>
        </g>
    </g>
</svg>