<?xml version="1.0" encoding="UTF-8" standalone="no"?>
<svg width="30px" height="30px" viewBox="0 0 30 30" version="1.1" xmlns="http://www.w3.org/2000/svg" xmlns:xlink="http://www.w3.org/1999/xlink">
    <g id="Welcome" stroke="none" stroke-width="1" fill="none" fill-rule="evenodd">
        <g id="icon" fill="#FFFFFF">
            <circle id="Oval" cx="15" cy="14" r="2.6"></circle>
            <path d="M18.4,14 C18.4,15.9 16.9,17.4 15,17.4 C13.1,17.4 11.6,15.9 11.6,14 C11.6,13.7 11.6,13.4 11.7,13.1 L9.9,13.1 L9.9,18.2 C9.9,18.7 10.3,19.1 10.8,19.1 L19.4,19.1 C19.9,19.1 20.3,18.7 20.3,18.2 L20.3,13.1 L18.5,13.1 C18.4,13.4 18.4,13.7 18.4,14 L18.4,14 Z" id="Shape"></path>
            <path d="M0,30 L30,30 L30,0 L0,0 L0,30 Z M21,18.3 C21,19.2 20.2,20 19.3,20 L10.7,20 C9.8,20 9,19.2 9,18.3 L9,9.7 C9,8.8 9.8,8 10.7,8 L19.3,8 C20.2,8 21,8.8 21,9.7 L21,18.3 L21,18.3 Z" id="Shape"></path>
            <path d="M19.3,8.8 L18.4,8.8 C17.9,8.8 17.5,9.2 17.5,9.7 L17.5,10.6 C17.5,11.1 17.9,11.5 18.4,11.5 L19.3,11.5 C19.8,11.5 20.2,11.1 20.2,10.6 L20.2,9.7 C20.1,9.2 19.8,8.8 19.3,8.8 L19.3,8.8 Z" id="Shape"></path>
        </g>
    </g>
</svg>