<?xml version="1.0" encoding="UTF-8" standalone="no"?>
<svg width="30px" height="30px" viewBox="0 0 30 30" version="1.1" xmlns="http://www.w3.org/2000/svg" xmlns:xlink="http://www.w3.org/1999/xlink">
    <g id="Welcome" stroke="none" stroke-width="1" fill="none" fill-rule="evenodd">
        <g id="Desktop-HD" fill="#FFFFFF">
            <path d="M0,0 L0,30 L30,30 L30,0 L0,0 L0,0 Z M19.3,15.6 L16.5,15.6 L16.5,22 L13.7,22 L13.7,15.6 L11.1,15.6 L11.1,12.9 L13.7,12.9 L13.7,10.5 C13.7,8.7 14.9,7 17.5,7 C18.6,7 19.4,7.1 19.4,7.1 L19.3,9.6 L17.6,9.6 C16.6,9.6 16.5,10 16.5,10.8 L16.5,10.9 L16.5,12.9 L19.4,12.9 L19.3,15.6 L19.3,15.6 Z" id="Shape"></path>
        </g>
    </g>
</svg>