<svg width="30px" height="30px" viewBox="0 0 30 30" version="1.1" xmlns="http://www.w3.org/2000/svg" xmlns:xlink="http://www.w3.org/1999/xlink">
    <g id="Welcome" stroke="none" stroke-width="1" fill="none" fill-rule="evenodd">
        <g id="Desktop-HD" fill="#FFFFFF">
            <g id="Welcome" transform="translate(-4.000000, -3.000000)">
                <g id="Desktop-HD">
                    <path d="M0,0 L0,36 L36,36 L36,0 L0,0 L0,0 L0,0 Z M23.16,18.72 L19.8,18.72 L19.8,26.4 L16.44,26.4 L16.44,18.72 L13.32,18.72 L13.32,15.48 L16.44,15.48 L16.44,12.6 C16.44,10.44 17.88,8.4 21,8.4 C22.32,8.4 23.28,8.52 23.28,8.52 L23.16,11.52 L21.12,11.52 C19.92,11.52 19.8,12 19.8,12.96 L19.8,13.08 L19.8,15.48 L23.28,15.48 L23.16,18.72 L23.16,18.72 L23.16,18.72 Z" id="Shape"></path>
                </g>
            </g>
        </g>
    </g>
</svg>