<?xml version="1.0" encoding="UTF-8" standalone="no"?>
<svg width="30px" height="30px" viewBox="0 0 30 30" version="1.1" xmlns="http://www.w3.org/2000/svg" xmlns:xlink="http://www.w3.org/1999/xlink">
    <g id="Welcome" stroke="none" stroke-width="1" fill="none" fill-rule="evenodd">
        <g id="Desktop-HD" fill="#FFFFFF">
            <path d="M0,0 L0,30 L30,30 L30,0 L0,0 L0,0 Z M21.4,11.8 L21.4,12.2 C21.4,15.9 18.3,20.2 12.7,20.2 C11,20.2 9.4,19.7 8,18.9 L8.7,18.9 C10.1,18.9 11.5,18.4 12.5,17.7 C11.2,17.7 10,16.9 9.6,15.7 C9.8,15.7 10,15.8 10.2,15.8 C10.5,15.8 10.8,15.8 11,15.7 C9.6,15.4 8.5,14.3 8.5,12.9 L8.5,12.9 C8.9,13.1 9.4,13.2 9.9,13.3 C9.1,12.8 8.5,11.9 8.5,10.9 C8.5,10.4 8.7,9.9 8.9,9.5 C10.4,11.2 12.7,12.3 15.2,12.5 C15.1,12.3 15.1,12.1 15.1,11.9 C15.1,10.3 16.5,9.1 18.2,9.1 C19.1,9.1 19.9,9.4 20.4,10 C21.1,9.9 21.8,9.6 22.3,9.3 C22.1,10 21.6,10.5 21,10.9 C21.6,10.8 22.2,10.7 22.8,10.5 L22.8,10.5 L22.8,10.5 L22.8,10.5 C22.5,10.9 22,11.4 21.4,11.8 L21.4,11.8 Z" id="Shape"></path>
        </g>
    </g>
</svg>