<?xml version="1.0" encoding="UTF-8" standalone="no"?>
<svg width="30px" height="30px" viewBox="0 0 30 30" version="1.1" xmlns="http://www.w3.org/2000/svg" xmlns:xlink="http://www.w3.org/1999/xlink">
    <g id="Welcome" stroke="none" stroke-width="1" fill="none" fill-rule="evenodd">
        <g id="Desktop-HD" fill="#FFFFFF">
            <path d="M0,0 L0,30 L30,30 L30,0 L0,0 L0,0 Z M21.4,18.9 L19.5,18.9 C19.5,18.9 19.1,19 18.6,18.6 C17.9,18.1 17.2,16.9 16.7,17 C16.2,17.2 16.2,18.3 16.2,18.3 C16.2,18.3 16.2,18.5 16.1,18.7 C16,18.8 15.7,18.9 15.7,18.9 L14.9,18.9 C14.9,18.9 13.1,19 11.4,17.3 C9.6,15.5 8.1,11.8 8.1,11.8 C8.1,11.8 8,11.6 8.1,11.4 C8.2,11.3 8.5,11.3 8.5,11.3 L10.5,11.3 C10.5,11.3 10.7,11.3 10.8,11.4 L11,11.6 C11,11.6 11.3,12.4 11.8,13.2 C12.6,14.6 13,15 13.3,14.8 C13.7,14.6 13.6,12.8 13.6,12.8 C13.6,12.8 13.6,12.1 13.4,11.8 C13.2,11.6 12.9,11.5 12.8,11.5 C12.7,11.5 12.9,11.2 13.1,11.1 C13.5,10.9 14.1,10.9 14.8,10.9 C15.4,10.9 15.6,10.9 15.8,11 C16.5,11.2 16.3,11.8 16.3,13.4 C16.3,13.9 16.2,14.6 16.6,14.8 C16.8,14.9 17.1,14.8 18.1,13.2 C18.5,12.4 18.9,11.6 18.9,11.6 C18.9,11.6 19,11.4 19.1,11.4 C19.2,11.3 19.4,11.4 19.4,11.4 L21.5,11.4 C21.5,11.4 22.1,11.3 22.2,11.6 C22.3,11.9 22,12.6 21.1,13.7 C19.7,15.6 19.5,15.4 20.7,16.5 C21.8,17.5 22.1,18 22.1,18.1 C22.3,18.9 21.4,18.9 21.4,18.9 L21.4,18.9 Z" id="Shape"></path>
        </g>
    </g>
</svg>